<svg width="63" height="63" viewBox="0 0 63 63" fill="none" xmlns="http://www.w3.org/2000/svg">
<path d="M13.7812 29.5312H53.1562C53.6784 29.5312 54.1792 29.7387 54.5484 30.1079C54.9176 30.4771 55.125 30.9779 55.125 31.5C55.125 32.0221 54.9176 32.5229 54.5484 32.8921C54.1792 33.2613 53.6784 33.4688 53.1562 33.4688H13.7812C13.2591 33.4688 12.7583 33.2613 12.3891 32.8921C12.0199 32.5229 11.8125 32.0221 11.8125 31.5C11.8125 30.9779 12.0199 30.4771 12.3891 30.1079C12.7583 29.7387 13.2591 29.5312 13.7812 29.5312Z" fill="white"/>
<path d="M14.5963 31.5L30.9251 47.8249C31.2948 48.1945 31.5025 48.6959 31.5025 49.2187C31.5025 49.7415 31.2948 50.2429 30.9251 50.6126C30.5554 50.9823 30.054 51.19 29.5312 51.19C29.0084 51.19 28.507 50.9823 28.1374 50.6126L10.4186 32.8939C10.2353 32.711 10.0898 32.4937 9.99055 32.2545C9.8913 32.0154 9.84021 31.7589 9.84021 31.5C9.84021 31.241 9.8913 30.9846 9.99055 30.7454C10.0898 30.5062 10.2353 30.289 10.4186 30.1061L28.1374 12.3874C28.507 12.0177 29.0084 11.81 29.5312 11.81C30.054 11.81 30.5554 12.0177 30.9251 12.3874C31.2948 12.757 31.5025 13.2584 31.5025 13.7812C31.5025 14.304 31.2948 14.8054 30.9251 15.1751L14.5963 31.5Z" fill="white"/>
</svg>
